<svg width="256" height="256" xmlns="http://www.w3.org/2000/svg" xmlns:xlink="http://www.w3.org/1999/xlink"><defs><rect id="b" width="220" height="220" rx="13.5"/><filter x="-8.9%" y="-8.9%" width="117.7%" height="117.7%" filterUnits="objectBoundingBox" id="a"><feOffset in="SourceAlpha" result="shadowOffsetOuter1"/><feGaussianBlur stdDeviation="6.5" in="shadowOffsetOuter1" result="shadowBlurOuter1"/><feColorMatrix values="0 0 0 0 0.980392157 0 0 0 0 0.270588235 0 0 0 0 0.266666667 0 0 0 0.293619792 0" in="shadowBlurOuter1"/></filter><linearGradient x1="28.5028176%" y1="100%" x2="80.9106052%" y2="0%" id="c"><stop stop-color="#FA3650" offset="0%"/><stop stop-color="#FA5539" offset="100%"/></linearGradient><linearGradient x1="35.2827228%" y1="111.200876%" x2="89.0272797%" y2="11.5826231%" id="d"><stop stop-color="#FA3650" offset="0%"/><stop stop-color="#FA5539" offset="100%"/></linearGradient></defs><g fill="none" fill-rule="evenodd"><g transform="translate(18 18)"><use fill="#000" filter="url(#a)" xlink:href="#b"/><use fill="#FFF" xlink:href="#b"/></g><g fill-rule="nonzero"><path d="M81.2524259 61.9466631c-5.0835674-14.225396-18.7321756-24.4212807-34.8147344-24.4212807-20.4266981 0-36.97139937 16.3927847-36.97139937 36.631921S26.0109934 110.789224 46.4376915 110.789224c16.0825588 0 29.731167-10.195884 34.8147344-24.4212803h26.8042651v24.4212803h24.647599V86.3679437h12.3238V61.9466631H81.2524259zM46.1346473 86.3679437c-6.7530888 0-12.2227851-5.4642616-12.2227851-12.2106403 0-6.7463788 5.4696963-12.2106403 12.2227851-12.2106403 6.7530887 0 12.222785 5.4642615 12.222785 12.2106403 0 6.7463787-5.4696963 12.2106403-12.222785 12.2106403z" fill="url(#c)" transform="translate(51.370787 53.842697)"/><path d="M81.2524259 61.9466631c-5.0835674-14.225396-18.7321756-24.4212807-34.8147344-24.4212807-20.4266981 0-36.97139937 16.3927847-36.97139937 36.631921S26.0109934 110.789224 46.4376915 110.789224c16.0825588 0 29.731167-10.195884 34.8147344-24.4212803h26.8042651v24.4212803h24.647599V86.3679437h12.3238V61.9466631H81.2524259zM46.1346473 86.3679437c-6.7530888 0-12.2227851-5.4642616-12.2227851-12.2106403 0-6.7463788 5.4696963-12.2106403 12.2227851-12.2106403 6.7530887 0 12.222785 5.4642615 12.222785 12.2106403 0 6.7463787-5.4696963 12.2106403-12.222785 12.2106403z" fill="url(#d)" opacity=".19565217" transform="rotate(15 -101.55535909 296.17858481)"/><path d="M81.2524259 61.9466631c-5.0835674-14.225396-18.7321756-24.4212807-34.8147344-24.4212807-20.4266981 0-36.97139937 16.3927847-36.97139937 36.631921S26.0109934 110.789224 46.4376915 110.789224c16.0825588 0 29.731167-10.195884 34.8147344-24.4212803h26.8042651v24.4212803h24.647599V86.3679437h12.3238V61.9466631H81.2524259zM46.1346473 86.3679437c-6.7530888 0-12.2227851-5.4642616-12.2227851-12.2106403 0-6.7463788 5.4696963-12.2106403 12.2227851-12.2106403 6.7530887 0 12.222785 5.4642615 12.222785 12.2106403 0 6.7463787-5.4696963 12.2106403-12.222785 12.2106403z" fill="url(#d)" opacity=".10269475" transform="rotate(30 2.46074409 196.93784505)"/><path d="M81.2524259 61.9466631c-5.0835674-14.225396-18.7321756-24.4212807-34.8147344-24.4212807-20.4266981 0-36.97139937 16.3927847-36.97139937 36.631921S26.0109934 110.789224 46.4376915 110.789224c16.0825588 0 29.731167-10.195884 34.8147344-24.4212803h26.8042651v24.4212803h24.647599V86.3679437h12.3238V61.9466631H81.2524259zM46.1346473 86.3679437c-6.7530888 0-12.2227851-5.4642616-12.2227851-12.2106403 0-6.7463788 5.4696963-12.2106403 12.2227851-12.2106403 6.7530887 0 12.222785 5.4642615 12.222785 12.2106403 0 6.7463787-5.4696963 12.2106403-12.222785 12.2106403z" fill="url(#d)" opacity=".0358356" transform="rotate(45 37.93869983 163.08867684)"/></g></g></svg>